# File produced by Open Asset Import Library (http://www.assimp.sf.net)
# (assimp v4.1.0)

mtllib 7k2g94x8mmi6.mtl

# 24 vertex positions
v  -53.90741348266602 90.65406036376953 12.0536994934082
v  35.73688125610352 90.65406036376953 -3.753010272979736
v  35.73688125610352 61.15265655517578 -3.753007888793945
v  -53.90741348266602 61.15265655517578 12.05370235443115
v  35.73688125610352 31.65125274658203 -3.753005027770996
v  -53.90741348266602 31.65125274658203 12.0537052154541
v  35.73688125610352 2.149848937988281 -3.753002643585205
v  -53.90741348266602 2.149848937988281 12.05370712280273
v  -35.1907958984375 99.26708984375 41.43290710449219
v  17.02025985717773 99.26708984375 -33.13221740722656
v  17.02026176452637 67.341064453125 -33.1322135925293
v  -35.1907958984375 67.341064453125 41.43291091918945
v  17.02026176452637 35.4150390625 -33.1322135925293
v  -35.1907958984375 35.4150390625 41.43291091918945
v  17.020263671875 3.489013671875 -33.13220977783203
v  -35.19079208374023 3.489013671875 41.43291473388672
v  25.78018569946289 118.4774856567383 33.40592193603516
v  -43.95071792602539 118.4774856567383 -25.105224609375
v  -43.95071792602539 77.87421417236328 -25.105224609375
v  25.78018569946289 77.87422180175781 33.40592193603516
v  -43.95071792602539 37.27095031738281 -25.105224609375
v  25.78018569946289 37.27095794677734 33.40592193603516
v  -43.95071792602539 -3.332313537597656 -25.105224609375
v  25.78018569946289 -3.332313537597656 33.40592193603516

# 8 UV coordinates
vt 0.9499465823173523 0.999500036239624 0
vt 0.0005000000237487257 0.9994998574256897 0
vt 0.0005000795936211944 0.6664999723434448 0
vt 0.9499466419219971 0.6664999723434448 0
vt 0.0005000795936211944 0.3334999680519104 0
vt 0.9499466419219971 0.3335000574588776 0
vt 0.0005001591634936631 0.0005000000237487257 0
vt 0.9499467611312866 0.0005001591634936631 0

# 3 vertex normals
vn -0.1736481934785843 -8.675870333263447e-08 -0.9848077297210693
vn -0.8191520571708679 -6.878320846226416e-08 -0.5735763907432556
vn -0.6427874565124512 -1.022651474613667e-08 0.7660446166992188

# Mesh 'Plane005' with 3 faces
g Plane005
usemtl 02 - Default
f  1/1/1 2/2/1 3/3/1 4/4/1
f  4/4/1 3/3/1 5/5/1 6/6/1
f  6/6/1 5/5/1 7/7/1 8/8/1

# Mesh 'Plane006' with 3 faces
g Plane006
usemtl 02 - Default
f  9/1/2 10/2/2 11/3/2 12/4/2
f  12/4/2 11/3/2 13/5/2 14/6/2
f  14/6/2 13/5/2 15/7/2 16/8/2

# Mesh 'Plane007' with 3 faces
g Plane007
usemtl 02 - Default
f  17/1/3 18/2/3 19/3/3 20/4/3
f  20/4/3 19/3/3 21/5/3 22/6/3
f  22/6/3 21/5/3 23/7/3 24/8/3

