# File produced by Open Asset Import Library (http://www.assimp.sf.net)
# (assimp v4.1.0)

mtllib 9iy7mhr4seag.mtl

# 24 vertex positions
v  61.06901931762695 111.4823837280273 44.78163909912109
v  -58.60020065307617 116.5921630859375 37.49061965942383
v  -61.77492141723633 0.2924726009368896 8.091480255126953
v  57.89435958862305 -4.817245960235596 15.38250064849854
v  42.72444152832031 126.1536407470703 28.85337829589844
v  -25.5044994354248 -15.30375480651855 -35.44757461547852
v  -3.184499979019165 94.84591674804688 -77.50543212890625
v  20.40449905395508 16.00390243530273 70.91117858886719
v  23.08247947692871 -15.30375671386719 -47.88407516479492
v  -5.862539768218994 126.1536407470703 41.28988265991211
v  -53.42562103271484 16.00389671325684 39.10061645507812
v  70.64556121826172 94.84592437744141 -45.69481658935547
v  24.69498062133789 126.1536407470703 43.26910018920898
v  -19.46742057800293 16.0039005279541 61.06583786010742
v  58.07994079589844 94.84592437744141 -67.6600341796875
v  13.91748046875 -15.3037576675415 -49.86329650878906
v  -73.15200042724609 110.3335037231445 43.26910018920898
v  16.66200065612793 0.5163832902908325 -49.86330032348633
v  -27.38544082641602 110.7121429443359 -67.6600341796875
v  -29.1046199798584 0.1377412080764771 61.06584167480469
v  -58.24728012084961 110.3334884643555 -40.84621810913086
v  58.24728012084961 0.5163938999176025 15.44964027404785
v  61.42193984985352 110.7121429443359 -31.95097923278809
v  -61.42193984985352 0.1377323865890503 6.554399967193604

# 4 UV coordinates
vt 1 1 0
vt 0 1 0
vt 0 0 0
vt 1 0 0

# 24 vertex normals
vn -0.07079416513442993 -0.2437918037176132 0.9672403335571289
vn -0.07079406827688217 -0.2437918931245804 0.9672402143478394
vn -0.07079411298036575 -0.2437918931245804 0.9672403335571289
vn -0.07079412788152695 -0.2437918186187744 0.9672403335571289
vn 0.9059634208679199 -0.299361914396286 -0.2993538379669189
vn 0.9059633016586304 -0.2993621826171875 -0.2993538379669189
vn 0.9059634804725647 -0.2993621528148651 -0.2993533611297607
vn 0.9059631824493408 -0.2993617951869965 -0.2993543148040771
vn 0.6626269221305847 -0.2997610569000244 0.6863446235656738
vn 0.6626269817352295 -0.2997607886791229 0.6863446235656738
vn 0.6626250743865967 -0.2997653484344482 0.6863444447517395
vn 0.6626269221305847 -0.2997609674930573 0.6863445639610291
vn 0.8867915868759155 -0.298238068819046 0.3530648052692413
vn 0.8867917656898499 -0.2982380092144012 0.3530645072460175
vn 0.8867916464805603 -0.2982380986213684 0.3530645072460175
vn 0.8867806196212769 -0.2982201278209686 0.3531072437763214
vn 0.8488184213638306 0.3929559290409088 0.3536848127841949
vn 0.8488132357597351 0.3929935395717621 0.3536554872989655
vn 0.8488184213638306 0.3929562270641327 0.3536846935749054
vn 0.8488184809684753 0.3929556310176849 0.3536849021911621
vn -0.07106457650661469 0.3948312401771545 0.9160011410713196
vn -0.07106462866067886 0.3948312997817993 0.9160010814666748
vn -0.07106461375951767 0.3948312997817993 0.9160011410713196
vn -0.0710645392537117 0.3948311507701874 0.9160011410713196

# Mesh 'bushgreen1' with 12 faces
g bushgreen1
usemtl GreenBushMAt
f  1/1/1 2/2/2 3/3/3
f  1/1/1 3/3/3 4/4/4
f  5/2/5 6/4/6 7/1/7
f  6/4/6 5/2/5 8/3/8
f  9/4/9 10/2/10 11/3/11
f  10/2/10 9/4/9 12/1/12
f  13/2/13 14/3/14 15/1/15
f  14/3/14 16/4/16 15/1/15
f  17/2/17 18/4/18 19/1/19
f  18/4/18 17/2/17 20/3/20
f  21/2/21 22/4/22 23/1/23
f  22/4/22 21/2/21 24/3/24

